#!OML:ASF I:\Actors\actors\Patient Classification 2\Patient 1\Session 1\actor1.ASF
:FULLY-SPECIFIED
:DEGREES
281
root -0.438267 18.7976 4.81175 4.02251 3.43036 0.758686
lowerback 13.5845 0.0478105 8.40148
upperback 2.97455 1.42231 3.44012
thorax -4.35143 0.624665 -1.34814
lowerneck -11.4338 -3.92668 -2.76983
upperneck 28.1541 -5.37797 1.55105
head 11.0991 -2.51636 0.354297
rclavicle 2.54444e-014 -2.38542e-014
rhumerus 24.0865 39.5147 -6.45613
rradius 107.776
rwrist -64.0322
rhand 3.11012 -54.717
rfingers 7.12502
rthumb 28.5658 -82.5546
lclavicle 2.54444e-014 -2.38542e-014
lhumerus 16.9055 -69.0256 44.6571
lradius 121.908
lwrist 24.1642
lhand -10.6033 -17.982
lfingers 7.12502
lthumb 15.4026 11.4242
rfemur 0 0 0
rtibia 0
rfoot 0 0
rtoes 0
lfemur -11.7738 -1.62656 -15.0687
ltibia 22.7305
lfoot -17.6045 10.7146
ltoes -56.9733
282
root -0.458933 18.7978 4.8117 3.86875 2.91361 0.692569
lowerback 13.7417 -0.123262 8.24302
upperback 3.07999 1.14878 2.77092
thorax -4.33612 0.492644 -1.92179
lowerneck -11.7968 -3.43294 -1.97072
upperneck 28.615 -4.96728 1.86647
head 11.3223 -2.20433 0.37649
rclavicle -3.10104e-014 -1.43125e-014
rhumerus 27.1011 42.57 -5.51633
rradius 107.997
rwrist -61.6057
rhand 0.387394 -55.0462
rfingers 7.12502
rthumb 25.9614 -83.2931
lclavicle -3.10104e-014 -1.43125e-014
lhumerus 12.7986 -68.8133 46.9915
lradius 121.322
lwrist 20.904
lhand -8.67348 -15.8979
lfingers 7.12502
lthumb 17.2607 13.3556
rfemur 0 0 0
rtibia 0
rfoot 0 0
rtoes 0
lfemur -11.466 -1.56166 -14.949
ltibia 22.6532
lfoot -17.5459 11.233
ltoes -57.0375
283
root -0.481079 18.797 4.81252 3.72239 2.41201 0.647906
lowerback 13.8898 -0.248542 7.76362
upperback 3.18983 0.899289 2.3058
thorax -4.32398 0.376315 -2.10404
lowerneck -12.1754 -2.95315 -1.25333
upperneck 29.053 -4.51454 2.00628
head 11.5426 -1.90104 0.356587
rclavicle 2.38542e-015 -3.18055e-015
rhumerus 30.2496 44.8873 -4.56885
rradius 107.695
rwrist -58.8838
rhand -2.2122 -54.7487
rfingers 7.12502
rthumb 23.4699 -83.3371
lclavicle 2.38542e-015 -3.18055e-015
lhumerus 7.43965 -68.2592 51.1858
lradius 120.62
lwrist 17.7085
lhand -6.10849 -13.0906
lfingers 7.12502
lthumb 19.7281 15.9283
rfemur 0 0 0
rtibia 0
rfoot 0 0
rtoes 0
lfemur -11.1625 -1.50996 -14.8509
ltibia 22.572
lfoot -17.5923 11.7046
ltoes -57.0859
284
root -0.506057 18.7954 4.81134 3.57572 1.88047 0.603368
lowerback 13.9887 -0.307013 6.88028
upperback 3.34914 0.683155 2.06472
thorax -4.23925 0.283429 -1.8275
lowerneck -12.5167 -2.4994 -0.63723
upperneck 29.3756 -4.04969 2.0524
head 11.7162 -1.61555 0.324267
rclavicle -9.54166e-015 -4.45278e-014
rhumerus 33.9179 46.2401 -3.55081
rradius 106.717
rwrist -56.1979
rhand -3.83375 -54.5993
rfingers 7.12502
rthumb 21.9136 -83.3783
lclavicle -9.54166e-015 -4.45278e-014
lhumerus 1.64546 -67.1944 56.3689
lradius 119.695
lwrist 13.8571
lhand -3.2774 -9.74558
lfingers 7.12502
lthumb 22.4477 18.9699
rfemur 0 0 0
rtibia 0
rfoot 0 0
rtoes 0
lfemur -10.8633 -1.3362 -14.7494
ltibia 22.4967
lfoot -17.7013 12.075
ltoes -57.1344
285
root -0.530545 18.7943 4.80513 3.45928 1.37935 0.518905
lowerback 13.9974 -0.322792 5.92383
upperback 3.58647 0.507048 1.93094
thorax -4.01776 0.214044 -1.40178
lowerneck -12.8317 -2.11607 -0.242661
upperneck 29.4894 -3.65405 2.19083
head 11.8146 -1.37648 0.357149
rclavicle -8.34896e-015 -1.35174e-014
rhumerus 38.0216 46.7852 -2.16838
rradius 105.487
rwrist -54.1088
rhand -5.56584 -54.9043
rfingers 7.12502
rthumb 20.2497 -83.8688
lclavicle -8.34896e-015 -1.35174e-014
lhumerus -3.37808 -65.5365 61.2567
lradius 118.547
lwrist 9.20214
lhand 0.089168 -6.39096
lfingers 7.12502
lthumb 25.6758 21.8975
rfemur 0 0 0
rtibia 0
rfoot 0 0
rtoes 0
lfemur -10.6195 -1.18747 -14.6077
ltibia 22.4221
lfoot -17.8884 12.4392
ltoes -57.1544
286
root -0.552842 18.7936 4.79885 3.42467 0.890353 0.357811
lowerback 14.0047 -0.309076 5.15326
upperback 3.75153 0.401768 1.79458
thorax -3.86159 0.172513 -1.09447
lowerneck -13.065 -1.79561 0.0769618
upperneck 29.5638 -3.32795 2.32607
head 11.8848 -1.17805 0.394472
rclavicle 1.27222e-014 4.92986e-014
rhumerus 41.4188 47.4392 -1.22886
rradius 104.359
rwrist -52.1524
rhand -9.01207 -55.256
rfingers 7.12502
rthumb 16.9348 -84.5377
lclavicle 1.27222e-014 4.92986e-014
lhumerus -7.60763 -63.4824 65.6701
lradius 117.24
lwrist 4.89758
lhand 3.77195 -3.44916
lfingers 7.12502
lthumb 29.198 24.2804
rfemur 0 0 0
rtibia 0
rfoot 0 0
rtoes 0
lfemur -10.4624 -1.17051 -14.3858
ltibia 22.3535
lfoot -18.121 12.9031
ltoes -57.1298
287
root -0.572496 18.7926 4.79479 3.42659 0.352959 0.214002
lowerback 14.3398 -0.246802 4.60074
upperback 3.60911 0.41915 1.5303
thorax -4.1965 0.174999 -1.06521
lowerneck -13.0343 -1.5401 0.469345
upperneck 29.8024 -3.12447 2.48399
head 11.9682 -1.02281 0.41433
rclavicle -1.98785e-016 1.74931e-014
rhumerus 43.7454 48.6516 -1.22946
rradius 103.216
rwrist -49.9922
rhand -11.9329 -55.6011
rfingers 7.12502
rthumb 14.1217 -85.1013
lclavicle -1.98785e-016 1.74931e-014
lhumerus -11.5414 -61.283 69.9107
lradius 115.78
lwrist 1.18556
lhand 7.99256 -1.35029
lfingers 7.12502
lthumb 33.22 25.6032
rfemur 0 0 0
rtibia 0
rfoot 0 0
rtoes 0
lfemur -10.3442 -1.11119 -14.196
ltibia 22.3346
lfoot -18.3694 13.3328
ltoes -57.039
288
root -0.583239 18.7892 4.78447 3.35729 -0.246616 -0.000478641
lowerback 14.4393 -0.187541 4.09088
upperback 3.68793 0.415443 1.34523
thorax -4.17103 0.177563 -0.972143
lowerneck -13.083 -1.24285 0.729862
upperneck 29.9036 -2.85667 2.74985
head 12.0177 -0.841286 0.505734
rclavicle -1.98785e-015 1.74931e-014
rhumerus 47.3865 48.3222 -0.21066
rradius 101.643
rwrist -49.3302
rhand -12.1543 -56.0651
rfingers 7.12502
rthumb 13.9083 -85.58
lclavicle -1.98785e-015 1.74931e-014
lhumerus -13.8861 -58.54 72.8917
lradius 114.125
lwrist -2.17132
lhand 12.8732 0.0885258
lfingers 7.12502
lthumb 37.8461 25.9295
rfemur 0 0 0
rtibia 0
rfoot 0 0
rtoes 0
lfemur -10.1012 -1.06542 -13.9627
ltibia 22.2472
lfoot -18.691 13.8374
ltoes -56.9671
289
root -0.577809 18.7825 4.75876 3.17739 -0.81719 -0.477265
lowerback 15.211 -0.191378 4.38771
upperback 3.49773 0.485888 1.0141
thorax -4.78094 0.194483 -1.50472
lowerneck -12.942 -0.98398 1.05414
upperneck 30.1661 -2.707 3.15721
head 12.0972 -0.685946 0.625498
rclavicle 7.7526e-015 1.35174e-014
rhumerus 49.5709 48.7622 -0.395176
rradius 100.327
rwrist -48.2553
rhand -11.8407 -56.2964
rfingers 7.12502
rthumb 14.2105 -85.7902
lclavicle 7.7526e-015 1.35174e-014
lhumerus -15.9134 -56.0923 75.4807
lradius 112.391
lwrist -5.44874
lhand 13.9244 1.70433
lfingers 7.12502
lthumb 38.8382 27.2705
rfemur 0 0 0
rtibia 0
rfoot 0 0
rtoes 0
lfemur -9.74436 -1.09405 -13.4882
ltibia 22.1194
lfoot -19.0646 14.4107
ltoes -56.9532
290
root -0.619501 18.7859 4.76796 3.46696 -1.28056 -0.161155
lowerback 14.4947 -0.00858412 2.93668
upperback 3.62689 0.459331 0.835793
thorax -4.2707 0.204077 -0.86433
lowerneck -13.092 -0.670037 1.30975
upperneck 30.3131 -2.38075 3.30011
head 12.1839 -0.491747 0.681094
rclavicle -6.85807e-015 -1.11319e-014
rhumerus 51.3842 49.226 -0.736408
rradius 99.1417
rwrist -46.6385
rhand -12.1196 -56.5538
rfingers 7.12502
rthumb 13.9418 -86.0664
lclavicle -6.85807e-015 -1.11319e-014
lhumerus -16.7207 -53.091 77.3395
lradius 110.442
lwrist -9.00641
lhand 14.8533 2.47972
lfingers 7.12502
lthumb 39.7135 27.7916
rfemur 0 0 0
rtibia 0
rfoot 0 0
rtoes 0
lfemur -9.89244 -0.997286 -13.7194
ltibia 21.9779
lfoot -19.1395 14.7084
ltoes -56.8473
291
root -0.644899 18.7841 4.76294 3.54338 -1.72037 -0.0306402
lowerback 14.3242 0.131362 2.09172
upperback 3.68413 0.499865 0.568317
thorax -4.12259 0.231688 -0.673879
lowerneck -13.2422 -0.39136 1.67
upperneck 30.5091 -2.12103 3.39716
head 12.2913 -0.319426 0.693387
rclavicle 1.39149e-015 8.34896e-015
rhumerus 52.1123 50.4329 -1.97684
rradius 98.0379
rwrist -44.3107
rhand -12.533 -56.9967
rfingers 7.12502
rthumb 13.5433 -86.5363
lclavicle 1.39149e-015 8.34896e-015
lhumerus -17.2225 -50.0696 78.9615
lradius 108.468
lwrist -12.4034
lhand 15.2756 1.77647
lfingers 7.12502
lthumb 40.111 26.9689
rfemur 0 0 0
rtibia 0
rfoot 0 0
rtoes 0
lfemur -9.79837 -0.988195 -13.7852
ltibia 21.8309
lfoot -18.8816 14.8921
ltoes -56.5391
